#!OML:ASF I:\golf\golf\golf 2\Subject 1\2002-09-07\Subject1.ASF
:FULLY-SPECIFIED
:DEGREES
563
root -2.71557 18.0394 -8.08887 5.32293 3.68031 -6.09636
lowerback -6.08005 0.0913076 -3.52501
upperback -1.35691 0.233525 4.96969
thorax 1.97188 0.09542 7.20609
lowerneck -23.778 -2.40269 0.0606506
upperneck 19.2856 -3.61383 1.08531
head 10.0806 -1.52239 -0.178465
rclavicle 2.39598e-014 5.08889e-014
rhumerus -32.1579 -11.0411 -72.4499
rradius 31.2291
rwrist -8.64452
rhand -20.8573 10.4437
rfingers 7.12502
rthumb 5.51209 -19.4646
lclavicle 2.39598e-014 5.08889e-014
lhumerus -27.2696 1.30739 84.8774
lradius 35.4384
lwrist 13.0204
lhand -7.00954 41.0931
lfingers 7.12502
lthumb 18.8616 70.1986
rfemur -12.2784 -5.6218 24.8246
rtibia 25.9096
rfoot -13.4461 -8.6553
rtoes 2.88911
lfemur -11.2904 6.3911 -15.5832
ltibia 26.2358
lfoot -16.6841 8.50367
ltoes -2.7981
564
root -2.74203 18.0441 -8.09564 5.47266 3.88969 -6.04398
lowerback -6.43081 -0.0277456 -3.61673
upperback -1.37521 0.0835726 5.03422
thorax 2.17124 0.0138415 7.32181
lowerneck -23.7125 -2.40829 -0.0288356
upperneck 19.3668 -3.59698 1.10581
head 10.1002 -1.51843 -0.153952
rclavicle 2.28602e-015 5.725e-014
rhumerus -31.9709 -10.2047 -72.795
rradius 31.7029
rwrist -9.22575
rhand -20.8095 10.8452
rfingers 7.12502
rthumb 5.55824 -19.0619
lclavicle 2.28602e-015 5.725e-014
lhumerus -27.1171 0.440145 85.4817
lradius 35.7586
lwrist 13.2196
lhand -7.0146 40.7262
lfingers 7.12502
lthumb 18.8568 69.8322
rfemur -12.3537 -5.67781 24.8993
rtibia 25.6936
rfoot -13.3652 -8.75631
rtoes 3.07094
lfemur -11.5596 6.32961 -15.5519
ltibia 26.2743
lfoot -16.6506 8.27685
ltoes -1.47577
565
root -2.76944 18.0468 -8.1026 5.53475 3.9311 -6.10515
lowerback -6.50193 -0.0978149 -3.53061
upperback -1.47932 -0.013748 5.0786
thorax 2.11777 -0.0303277 7.31122
lowerneck -23.6196 -2.36578 0.0118176
upperneck 19.5221 -3.54378 1.05548
head 10.1375 -1.49605 -0.170337
rclavicle 1.79551e-014 2.38542e-015
rhumerus -31.9413 -9.33857 -73.2336
rradius 32.1876
rwrist -9.78098
rhand -20.8308 11.2817
rfingers 7.12502
rthumb 5.5377 -18.626
lclavicle 1.79551e-014 2.38542e-015
lhumerus -27.1283 -0.456275 85.9783
lradius 36.0634
lwrist 13.4473
lhand -7.04236 40.2852
lfingers 7.12502
lthumb 18.8301 69.3937
rfemur -12.3271 -5.52 25.0627
rtibia 25.4997
rfoot -13.4015 -8.72559
rtoes 4.5524
lfemur -11.7075 6.41375 -15.3871
ltibia 26.3125
lfoot -16.6087 8.13062
ltoes -0.590729
566
root -2.79971 18.0462 -8.10993 5.45653 3.9999 -6.16225
lowerback -6.50743 -0.166369 -3.50592
upperback -1.48151 -0.10853 5.13615
thorax 2.13314 -0.0783947 7.35097
lowerneck -23.5922 -2.31722 0.0852776
upperneck 19.6293 -3.48246 0.965024
head 10.1676 -1.47254 -0.205468
rclavicle 3.14406e-015 1.86858e-014
rhumerus -31.8395 -8.61478 -73.6423
rradius 32.6865
rwrist -10.1422
rhand -20.9514 11.5644
rfingers 7.12502
rthumb 5.42131 -18.3462
lclavicle 3.14406e-015 1.86858e-014
lhumerus -26.9799 -1.21254 86.4704
lradius 36.2815
lwrist 13.4051
lhand -6.85597 39.9575
lfingers 7.12502
lthumb 19.0093 69.0485
rfemur -12.1571 -5.42986 25.2142
rtibia 25.3209
rfoot -13.4809 -8.69247
rtoes 5.85321
lfemur -11.6828 6.46419 -15.1979
ltibia 26.354
lfoot -16.6024 8.05335
ltoes -0.240312
567
root -2.82762 18.046 -8.11727 5.37735 4.12325 -6.21818
lowerback -6.54506 -0.236091 -3.47994
upperback -1.46021 -0.205792 5.21845
thorax 2.19148 -0.12966 7.41692
lowerneck -23.5491 -2.33766 -0.022615
upperneck 19.6814 -3.47812 0.981857
head 10.181 -1.47653 -0.181183
rclavicle 9.52924e-015 -1.07344e-014
rhumerus -31.6915 -7.98321 -73.9397
rradius 33.1533
rwrist -10.4392
rhand -20.8794 11.9142
rfingers 7.12502
rthumb 5.4908 -17.9946
lclavicle 9.52924e-015 -1.07344e-014
lhumerus -26.7637 -1.86816 87.0192
lradius 36.425
lwrist 13.3211
lhand -6.76891 39.6409
lfingers 7.12502
lthumb 19.0931 68.7237
rfemur -12.0157 -5.31486 25.3563
rtibia 25.1542
rfoot -13.6352 -8.71994
rtoes 7.15678
lfemur -11.6599 6.35953 -15.0229
ltibia 26.4105
lfoot -16.5742 8.06608
ltoes 0.140029
568
root -2.85215 18.0491 -8.12596 5.38203 4.18639 -6.21859
lowerback -6.48884 -0.30956 -3.40503
upperback -1.53785 -0.30874 5.25684
thorax 2.09512 -0.176201 7.40482
lowerneck -23.4249 -2.3431 -0.212992
upperneck 19.6645 -3.45287 1.12023
head 10.1591 -1.46342 -0.0956618
rclavicle -1.86128e-015 -1.74931e-014
rhumerus -31.5555 -7.37479 -74.2596
rradius 33.4458
rwrist -10.6374
rhand -20.7962 12.447
rfingers 7.12502
rthumb 5.57112 -17.4598
lclavicle -1.86128e-015 -1.74931e-014
lhumerus -26.6377 -2.42401 87.4796
lradius 36.5428
lwrist 13.3205
lhand -6.75847 39.2722
lfingers 7.12502
lthumb 19.1031 68.354
rfemur -11.9825 -5.21047 25.4392
rtibia 25.0407
rfoot -13.7142 -8.76511
rtoes 7.37055
lfemur -11.7446 6.28397 -14.9565
ltibia 26.4505
lfoot -16.4576 8.23648
ltoes -0.715657
569
root -2.87613 18.0546 -8.13559 5.40503 4.15378 -6.24673
lowerback -6.52145 -0.320945 -3.31486
upperback -1.60451 -0.328409 5.27844
thorax 2.0468 -0.182526 7.37363
lowerneck -23.2409 -2.32486 -0.212898
upperneck 19.6272 -3.42287 1.10456
head 10.1121 -1.45335 -0.0942968
rclavicle -5.03174e-015 3.10104e-014
rhumerus -31.4918 -6.70964 -74.6307
rradius 33.8516
rwrist -10.8227
rhand -20.9779 12.4086
rfingers 7.12502
rthumb 5.39565 -17.5027
lclavicle -5.03174e-015 3.10104e-014
lhumerus -26.4783 -3.00689 87.9159
lradius 36.6712
lwrist 13.2344
lhand -6.53074 39.2
lfingers 7.12502
lthumb 19.3221 68.2601
rfemur -12.0014 -5.13784 25.5448
rtibia 24.982
rfoot -13.4621 -8.80997
rtoes 5.15938
lfemur -11.8516 6.41971 -14.8852
ltibia 26.4628
lfoot -16.2333 8.48019
ltoes -3.01846
